<?xml version="1.0" encoding="iso-8859-1"?>
<!-- Uploaded to: SVG Repo, www.svgrepo.com, Generator: SVG Repo Mixer Tools -->
<svg height="800px" width="800px" version="1.1" id="Layer_1" xmlns="http://www.w3.org/2000/svg" xmlns:xlink="http://www.w3.org/1999/xlink" 
	 viewBox="0 0 512 512" xml:space="preserve">
<g>
	<path style="fill:#2D527C;" d="M121.342,467.917H86.798c-7.681,0-13.911-6.228-13.911-13.911s6.229-13.911,13.911-13.911h34.544
		c7.681,0,13.911,6.228,13.911,13.911S129.025,467.917,121.342,467.917z"/>
	<path style="fill:#2D527C;" d="M498.089,467.917h-36.597c-7.681,0-13.911-6.228-13.911-13.911s6.229-13.911,13.911-13.911h36.597
		c7.681,0,13.911,6.228,13.911,13.911S505.772,467.917,498.089,467.917z"/>
	<path style="fill:#2D527C;" d="M482.81,466.245h-21.317c-7.681,0-13.911-6.228-13.911-13.911c0-7.683,6.229-13.911,13.911-13.911
		h7.406v-6.119c0-28.399-12.109-51.329-35.02-66.311c-16.684-10.91-37.868-16.677-61.258-16.677H169.899
		c-18.515,0-34.715,13.15-38.524,31.268l-12.156,57.84h4.179c7.681,0,13.911,6.228,13.911,13.911
		c0,7.683-6.229,13.911-13.911,13.911h-21.318c-4.191,0-8.159-1.889-10.802-5.144c-2.64-3.255-3.675-7.527-2.811-11.628
		l15.681-74.612c6.5-30.923,34.152-53.367,65.751-53.367h202.722c28.814,0,55.263,7.335,76.485,21.215
		c30.704,20.079,47.615,51.898,47.615,89.596v20.03C496.721,460.017,490.493,466.245,482.81,466.245z"/>
	<path style="fill:#2D527C;" d="M325.535,466.245H219.383c-7.681,0-13.911-6.228-13.911-13.911c0-7.683,6.229-13.911,13.911-13.911
		h106.152c7.681,0,13.911,6.228,13.911,13.911C339.446,460.017,333.216,466.245,325.535,466.245z"/>
</g>
<path style="fill:#CEE8FA;" d="M372.621,335.405c21.043,0,40.704,4.315,57.427,12.471l-19.494-84.492
	c-5.429-20.603-24.06-34.962-45.367-34.962H241.244c-18.978,0-36.088,11.435-43.347,28.97l-29.076,78.014h203.8V335.405z"/>
<g>
	<path style="fill:#2D527C;" d="M430.047,361.786c-2.074,0-4.159-0.463-6.096-1.408c-14.843-7.238-32.593-11.063-51.33-11.063
		h-203.8c-4.557,0-8.826-2.233-11.426-5.976c-2.598-3.743-3.201-8.522-1.608-12.792l29.076-78.014
		c0.057-0.154,0.118-0.309,0.182-0.462c9.445-22.818,31.505-37.56,56.199-37.56h123.945c27.6,0,51.786,18.639,58.817,45.328
		c0.036,0.139,0.071,0.278,0.103,0.417l19.494,84.492c1.205,5.223-0.7,10.676-4.897,14.014
		C436.198,360.758,433.134,361.786,430.047,361.786z M188.852,321.494h183.769c13.186,0,26.049,1.586,38.14,4.657l-13.708-59.414
		c-3.88-14.381-16.954-24.406-31.864-24.406H241.245c-13.324,0-25.235,7.911-30.407,20.172L188.852,321.494z"/>
	<path style="fill:#2D527C;" d="M325.535,407.78c-7.681,0-13.911-6.228-13.911-13.911V233.743c0-7.683,6.229-13.911,13.911-13.911
		c7.681,0,13.911,6.228,13.911,13.911V393.87C339.446,401.552,333.216,407.78,325.535,407.78z"/>
</g>
<circle style="fill:#CEE8FA;" cx="422.493" cy="448.131" r="41.205"/>
<path style="fill:#2D527C;" d="M422.491,503.245c-30.392,0-55.117-24.725-55.117-55.115c0-30.392,24.725-55.117,55.117-55.117
	c30.391,0,55.115,24.725,55.115,55.117C477.606,478.52,452.88,503.245,422.491,503.245z M422.491,420.834
	c-15.05,0-27.295,12.244-27.295,27.295s12.246,27.294,27.295,27.294c15.05,0,27.294-12.244,27.294-27.294
	S437.541,420.834,422.491,420.834z"/>
<circle style="fill:#CEE8FA;" cx="161.739" cy="448.131" r="41.205"/>
<g>
	<path style="fill:#2D527C;" d="M161.742,503.245c-30.391,0-55.115-24.725-55.115-55.115c0-30.392,24.725-55.117,55.115-55.117
		s55.115,24.725,55.115,55.117C216.858,478.52,192.132,503.245,161.742,503.245z M161.742,420.834
		c-15.05,0-27.294,12.244-27.294,27.295s12.244,27.294,27.294,27.294s27.294-12.244,27.294-27.294S176.793,420.834,161.742,420.834z
		"/>
	<path style="fill:#2D527C;" d="M189.184,199.524H13.911C6.229,199.524,0,193.296,0,185.614V22.666
		C0,14.983,6.229,8.755,13.911,8.755h175.274c7.681,0,13.911,6.228,13.911,13.911v162.948
		C203.095,193.296,196.866,199.524,189.184,199.524z M27.821,171.703h147.453V36.577H27.821V171.703z"/>
	<path style="fill:#2D527C;" d="M103.362,56.32H77.46c-5.326,0-9.344,3.425-9.344,7.968v79.581c0,4.764,4.871,8.092,11.846,8.092
		c6.976,0,11.848-3.327,11.848-8.092v-24.942h10.301c20.888,0,32.868-11.341,32.868-31.115v-0.626
		C134.979,67.282,123.75,56.32,103.362,56.32z M102.111,99.739H91.81V77.51h10.301c6.174,0,9.175,3.411,9.175,10.426v1.376
		C111.286,96.328,108.286,99.739,102.111,99.739z"/>
	<path style="fill:#2D527C;" d="M101.548,316.528c-7.681,0-13.911-6.228-13.911-13.911V187.426c0-7.683,6.229-13.911,13.911-13.911
		s13.911,6.228,13.911,13.911v115.191C115.458,310.3,109.229,316.528,101.548,316.528z"/>
</g>
</svg>